<svg xmlns="http://www.w3.org/2000/svg" data-name="Layer 1" viewBox="0 0 512 512"><circle cx="394.34" cy="133.44" r="39.43" fill="#e2a701" transform="rotate(-80.78 394.359 133.436)"/><path fill="#fdc738" d="M394.34,176.88a43.44,43.44,0,1,1,43.44-43.44A43.48,43.48,0,0,1,394.34,176.88Zm0-78.87a35.44,35.44,0,1,0,35.44,35.43A35.48,35.48,0,0,0,394.34,98Z"/><text fill="#fdc738" font-family="FredokaOne-Regular,Fredoka One" font-size="58.89" transform="translate(380.36 152.01)">$</text><circle cx="118.52" cy="392.75" r="27.5" fill="#e2a701"/><path fill="#fdc738" d="M118.52,424.25a31.5,31.5,0,1,1,31.5-31.5A31.53,31.53,0,0,1,118.52,424.25Zm0-55a23.5,23.5,0,1,0,23.5,23.5A23.52,23.52,0,0,0,118.52,369.25Z"/><text fill="#fdc738" font-family="FredokaOne-Regular,Fredoka One" font-size="41.07" transform="translate(108.76 405.7)">$</text><circle cx="299.52" cy="139.75" r="18" fill="#e2a701"/><path fill="#fdc738" d="M299.52,161.75a22,22,0,1,1,22-22A22,22,0,0,1,299.52,161.75Zm0-36a14,14,0,1,0,14,14A14,14,0,0,0,299.52,125.75Z"/><ellipse cx="193.73" cy="434.75" fill="#e2a701" rx="17.31" ry="17.5"/><path fill="#fdc738" d="M193.72 456.25A21.5 21.5 0 1 1 215 434.75 21.43 21.43 0 0 1 193.72 456.25zm0-35A13.5 13.5 0 1 0 207 434.75 13.42 13.42 0 0 0 193.72 421.25zM357.17 398.75l8.18-8.17a4 4 0 0 0-5.66-5.66l-8.17 8.17-8.17-8.17a4 4 0 1 0-5.66 5.66l8.17 8.17-8.17 8.17a4 4 0 0 0 5.66 5.66l8.17-8.17 8.17 8.17a4 4 0 0 0 5.66-5.66zM155.35 108.92a4 4 0 0 1-5.66 5.66l-8.17-8.17-8.17 8.17a4 4 0 1 1-5.66-5.66l8.17-8.17-8.17-8.17a4 4 0 1 1 5.66-5.66l8.17 8.17 8.17-8.17a4 4 0 0 1 5.66 5.66l-8.17 8.17z"/><path fill="#3485e2" d="M415.42 384.72a19.32 19.32 0 1 1 16.75-28.16h0a19.42 19.42 0 0 1 1.36 14.71 18.94 18.94 0 0 1-18.11 13.45zM415 354.05a10.85 10.85 0 0 0-5 1.24 11.39 11.39 0 0 0 10.51 20.2 11 11 0 0 0 5.44-6.56A11.53 11.53 0 0 0 415 354.05zM91.39 184.45a17.08 17.08 0 1 1 14.82-24.9h0a17 17 0 0 1-7.11 23A16.54 16.54 0 0 1 91.39 184.45zM91 158.27a8.67 8.67 0 0 0-4 1 9.14 9.14 0 1 0 12.13 4A9.17 9.17 0 0 0 91 158.27z"/><path fill="#2f80d1" d="M242.6,169.29v82.19c-6.46,2.72-20.65,11.45-20.65,35.6V345H169V287.08c0-24.15-14.19-32.88-20.65-35.6V169.29c0-7.88,5.91-14.29,13.17-14.29h68C236.69,155,242.6,161.41,242.6,169.29Z"/><path fill="#0e4b87" d="M230 345h0zm-69 0h0zM229.43 147h-68c-11.67 0-21.17 10-21.17 22.29V330.71c0 12.29 9.5 22.29 21.17 22.29h68c11.67 0 21.17-10 21.17-22.29V169.29C250.6 157 241.1 147 229.43 147zM161 345h-.11a4.9 4.9 0 0 1-.54 0c-.22 0-.44 0-.65-.08l-.63-.11-.36-.08-.44-.11-.5-.15-.42-.15c-.24-.08-.48-.18-.71-.28a6.11 6.11 0 0 1-.58-.27 2.79 2.79 0 0 1-.34-.18l-.41-.23a2.5 2.5 0 0 1-.35-.21l-.53-.35-.44-.31a14 14 0 0 1-3.73-4.32c-.1-.18-.2-.36-.29-.55a14.47 14.47 0 0 1-1.36-4 12.18 12.18 0 0 1-.19-1.35 14.13 14.13 0 0 1-.07-1.46V260.36c5.18 3.14 12.65 10.48 12.65 26.72zm81.64-14.28a14.13 14.13 0 0 1-.07 1.46 12.18 12.18 0 0 1-.19 1.35 14.47 14.47 0 0 1-1.36 4c-.09.19-.19.37-.29.55a14 14 0 0 1-3.73 4.32l-.44.31-.53.35a2.5 2.5 0 0 1-.35.21 3.3 3.3 0 0 1-.41.23 2.79 2.79 0 0 1-.34.18 6.11 6.11 0 0 1-.58.27c-.23.1-.47.2-.71.28l-.42.15-.5.15-.44.11-.36.08-.63.11c-.21 0-.43.06-.65.08a4.9 4.9 0 0 1-.54 0H230V287.08c0-16.3 7.45-23.62 12.65-26.74zm0-79.23c-6.46 2.72-20.65 11.45-20.65 35.6V345H169V287.08c0-24.15-14.19-32.88-20.65-35.6V169.29c0-7.88 5.91-14.29 13.17-14.29h68c7.26 0 13.17 6.41 13.17 14.29z"/><path fill="#71b8fd" d="M242.6 260.34v70.37a14.13 14.13 0 0 1-.07 1.46 12.18 12.18 0 0 1-.19 1.35 14.47 14.47 0 0 1-1.36 4c-.09.19-.19.37-.29.55a14 14 0 0 1-3.73 4.32l-.44.31-.53.35a2.5 2.5 0 0 1-.35.21 3.3 3.3 0 0 1-.41.23 2.79 2.79 0 0 1-.34.18 6.11 6.11 0 0 1-.58.27c-.23.1-.47.2-.71.28l-.42.15-.5.15-.44.11-.36.08-.63.11c-.21 0-.43.06-.65.08a4.9 4.9 0 0 1-.54 0H230V287.08C230 270.78 237.4 263.46 242.6 260.34zM161 287.08V345h-.11a4.9 4.9 0 0 1-.54 0c-.22 0-.44 0-.65-.08l-.63-.11-.36-.08-.44-.11-.5-.15-.42-.15c-.24-.08-.48-.18-.71-.28a6.11 6.11 0 0 1-.58-.27 2.79 2.79 0 0 1-.34-.18l-.41-.23a2.5 2.5 0 0 1-.35-.21l-.53-.35-.44-.31a14 14 0 0 1-3.73-4.32c-.1-.18-.2-.36-.29-.55a14.47 14.47 0 0 1-1.36-4 12.18 12.18 0 0 1-.19-1.35 14.13 14.13 0 0 1-.07-1.46V260.36C153.49 263.5 161 270.84 161 287.08z"/><rect width="53.93" height="10.77" x="168.49" y="176.58" fill="#71b8fd"/><path fill="#0e4b87" d="M226.42 168.58H164.49a4 4 0 0 0-4 4v18.77a4 4 0 0 0 4 4h61.93a4 4 0 0 0 4-4V172.58A4 4 0 0 0 226.42 168.58zm-4 18.77H168.49V176.58h53.93zM226.42 203.3H164.49a4 4 0 0 0-4 4v18.77a4 4 0 0 0 4 4h61.93a4 4 0 0 0 4-4V207.3A4 4 0 0 0 226.42 203.3zm-4 18.77H168.49V211.3h53.93z"/><rect width="53.93" height="10.77" x="168.49" y="211.3" fill="#71b8fd"/><path fill="#71b8fd" d="M204.12,311.93a8.67,8.67,0,1,1-8.66-8.66A8.68,8.68,0,0,1,204.12,311.93Z"/><path fill="#0e4b87" d="M195.46,295.27a16.67,16.67,0,1,0,16.66,16.66A16.68,16.68,0,0,0,195.46,295.27Zm0,25.33a8.67,8.67,0,1,1,8.66-8.67A8.67,8.67,0,0,1,195.46,320.6Z"/><path fill="#71b8fd" d="M410.69,210.38v77.24a2.65,2.65,0,0,1-2.41,2.83H278a2.65,2.65,0,0,1-2.41-2.83V210.38a2.65,2.65,0,0,1,2.41-2.83H408.28A2.65,2.65,0,0,1,410.69,210.38Z"/><path fill="#0e4b87" d="M408.28,199.55H278a10.64,10.64,0,0,0-10.41,10.83v77.24A10.64,10.64,0,0,0,278,298.45h47.6a42.82,42.82,0,0,0-4.09,12.9c-7.8.26-14.5.66-19.53,1.16-6.74.68-12.57,1.27-12.57,6,0,4.1,4.54,4.86,7.26,5.31s6.34.83,11,1.16c9.49.66,22.08,1,35.45,1s26-.37,35.46-1c4.69-.33,8.41-.72,11-1.16s7.26-1.21,7.26-5.31c0-4.72-5.82-5.31-12.55-6-5-.51-11.74-.91-19.55-1.17a43.06,43.06,0,0,0-4.08-12.9h47.59a10.64,10.64,0,0,0,10.41-10.83V210.38A10.64,10.64,0,0,0,408.28,199.55ZM343.12,311h0c-4.64,0-9.17.09-13.52.26l0-.13a43.51,43.51,0,0,1,4.95-12.68H351.7a43.86,43.86,0,0,1,5,12.68.59.59,0,0,0,0,.13C352.32,311.09,347.76,311,343.12,311Zm67.57-23.38a2.65,2.65,0,0,1-2.41,2.83H278a2.65,2.65,0,0,1-2.41-2.83V210.38a2.65,2.65,0,0,1,2.41-2.83H408.28a2.65,2.65,0,0,1,2.41,2.83Z"/><path fill="#0e4b87" d="M343.09 311c-4.64 0-9.17.09-13.52.26l0-.13C333.94 311 338.46 311 343.09 311zM356.68 311.26c-4.36-.17-8.92-.26-13.56-.26 4.65 0 9.19 0 13.54.13A.59.59 0 0 0 356.68 311.26z"/><path fill="#2f80d1" d="M356.68,311.26c-4.36-.17-8.92-.26-13.56-.26h0c-4.64,0-9.17.09-13.52.26l0-.13a43.51,43.51,0,0,1,4.95-12.68H351.7a43.86,43.86,0,0,1,5,12.68A.59.59,0,0,0,356.68,311.26Z"/></svg>